<?xml version="1.0" encoding="UTF-8" standalone="no"?>
<svg
   xmlns:dc="http://purl.org/dc/elements/1.1/"
   xmlns:cc="http://creativecommons.org/ns#"
   xmlns:rdf="http://www.w3.org/1999/02/22-rdf-syntax-ns#"
   xmlns:svg="http://www.w3.org/2000/svg"
   xmlns="http://www.w3.org/2000/svg"
   viewBox="0 0 5333.3335 5333.3335"
   height="5333.3335"
   width="5333.3335"
   xml:space="preserve"
   id="svg2"
   version="1.1"><metadata
     id="metadata8"><rdf:RDF><cc:Work
         rdf:about=""><dc:format>image/svg+xml</dc:format><dc:type
           rdf:resource="http://purl.org/dc/dcmitype/StillImage" /></cc:Work></rdf:RDF></metadata><defs
     id="defs6" /><g
     transform="matrix(1.3333333,0,0,-1.3333333,0,5333.3333)"
     id="g10"><g
       transform="scale(0.1)"
       id="g12"><g
         transform="scale(2.45399)"
         id="g14"><path
           id="path16"
           style="fill:#ffffff;fill-opacity:1;fill-rule:nonzero;stroke:none"
           d="M 16300,0 H 0 V 16300 H 16300 V 0" /></g><g
         transform="scale(2.33518)"
         id="g18"><path
           id="path20"
           style="fill:#666666;fill-opacity:1;fill-rule:nonzero;stroke:none"
           d="m 12012.8,3086.87 -598.5,847.22 238.9,918.05 z m 3725.1,6428.94 533.7,574.69 -533.7,-1667.33 z m -673.8,-868.5 647.1,-280.5 -1618.5,-1048.74 z m -2741.7,-2823.86 1102.4,61.93 -1741.9,-969.61 z m -1441.2,-1347.22 -63.3,522.19 809.6,-113.27 z m 519.3,-527.24 -512.1,511.65 752.6,412.35 z m -50.5,-628.77 61.2,588.6 594.8,-842.03 z m 8.1,-21.46 659.1,-254.62 -283.4,-516.84 z m -22.3,6.73 374.7,-769.54 -968.7,708.17 z m -528.8,699.64 -92.5,-720.97 -714.3,1785.9 z m -1451.35,1785.82 585.18,-647.1 -1625.92,523.77 z M 8266.39,6814.17 V 5690.36 l -873.38,762.85 z m -1659.83,87.06 736.39,-435.26 -1893.09,87.06 z m -1299.08,548.82 80.16,-869.61 -750.14,1152.46 z m -1941.27,511.57 1197.6,-209.71 -1389.54,-227.94 z m -704.03,123.29 463.5,-544.71 -1377.5,704.74 z m -990.72,1164.36 13.09,-940.14 -702.14,1749.97 z m -26.04,1869.43 -666.299,-964 650.009,2134.2 z m 1025.54,1483.8 -999.51,-241.5 1913.2,1563.4 z m 2833.33,1311.3 -1827.71,62.4 2992.85,938.7 z m 2652.39,520.9 -1386.23,487.5 3079.59,-231.1 z m 2018.42,-653.6 -235,893.9 1647,-1051.1 z m 2651.8,-842.5 -1159.7,657.3 2205,-331.6 z m 2437.2,-2083.5 62.3,1180.3 942.3,-1884.4 z m 468.5,-1319.72 -460.2,1293.02 1006.1,-705.3 z m -11.9,-41.2 V 8381.37 l -646,279.98 z m -1441.4,-1577.35 721.7,673.18 -916.9,-1254.68 z m -317.8,-296.51 86.8,-330.43 -1069.6,-586.25 z m -1038.8,-971.79 523,-744.82 -1110.3,-62.36 z m -1240.3,-656.7 621.4,-165.16 -640.5,-908.89 z m -1015.2,250.18 968.4,-1340.71 -819.8,114.72 z m -684.62,-1109.43 666.62,1115.51 149,-1229.63 z m 18.52,-19.86 799.3,-111.86 63,-519.62 z m 809,-1083.35 -799.3,1055.04 854.3,-625.69 z M 10635,6257.64 9967.21,5140.25 9373.89,5796.3 Z M 8283.52,6807.06 9339.84,5806.32 8283.52,5681.15 Z m -47.1,13.28 -858.78,-354.97 -735.7,434.83 z m -2475.49,438.29 821.52,-346.78 -1166.67,-351.19 z m -163.93,69.25 148.13,-62.57 -319.38,-645.86 z m -16.01,6.72 -177.85,-735.7 -77.77,843.62 z m -319.55,801.57 602.14,367.51 -278.52,-1152.21 -261.44,110.4 z m -16.27,-9.94 60.55,-656.82 -671.94,283.66 z m -1552.12,580.64 897.86,-942.28 -1217.62,213.17 z m -757.07,-652.54 -190.48,441.81 930.18,213.82 -319.76,-729.15 z m 8.11,-18.8 404.75,-70.87 -188.68,-430.25 z m -20.18,3.56 205.72,-477.14 -441.03,518.33 z m -521.95,378.08 326.57,75.07 187.27,-434.35 -244.58,42.82 z m -18.81,-4.32 261.65,-307.51 -907.87,158.96 z m -497.42,584.58 -184.25,-673.57 -12.6,904.94 z m -207.06,964 447.98,-83.21 -235.45,-860.79 -202.7,238.22 z m -17.17,3.21 9.59,-688.52 -694.017,815.68 z m -12.53,898.96 -619.64,-666.4 616.5,892 z m 180.5,491.3 49.62,-243.9 -213.23,-229.3 -3.23,231.8 z m -4.74,23.2 -162.51,-235.1 -15.46,1109.6 z m 320.61,463.9 -491.66,497.1 1002.66,242.2 z m 1271.85,923.1 -1058.74,-1138.6 -200.85,203.1 523.73,757.7 z m 18.06,22 -739.3,-178.6 916.05,1325.3 z m 875.04,475.5 -856.35,-466.7 178.06,1155.3 z m 15.68,8.5 -678.66,689 1828.42,-62.5 z m 2603.27,922.3 -1391.68,-273.6 1164.71,1000.8 z m 16.87,3.4 -226.28,725 1403.53,-493.5 z m 2115.04,-55.5 -868.16,281.6 1695.42,256.7 z m 20.94,-6.8 838.87,545.8 235.14,-894 z m 1610.11,-946.8 -502.9,574.6 1402.1,-156.1 z m 597.3,-668.3 338.2,1079.2 1175.9,-666.5 z m 2485.7,-63.6 -926.6,471.6 1051.2,327.5 z m 773.2,-828.6 -740.9,800.5 1489.4,-362.8 z m 11.9,-12.8 749.9,438.4 -62.3,-1181.3 z m 461.9,-1484.9 233.4,695.2 454.9,-1278.4 z m -141.8,-422.36 135.9,404.86 681.6,-577.44 z m -60.2,-179.39 54.7,163.07 772.3,-163.07 z m -207.3,-617.34 201.5,600.21 h 897.4 l -652.9,-841.77 z m -96.5,-287.38 521.9,25.18 -747.5,-697.3 z m -1220.1,-58.8 411.6,19.87 248.6,-944.94 -1020.3,-951.71 z m -1608.8,-2287.19 587.8,-425.11 -592.6,157.55 z m -161.3,137.8 147.1,25.27 -2.3,-129.97 z m -831.4,-142.68 807.8,138.66 168,-121.53 -4.9,-275.27 z m -977.38,666.63 919.18,-662.35 -1264.34,-462.49 z m -459.71,331.23 17.9,-12.89 73.74,-1436.2 -1059.32,1003.56 z M 7353.83,7467.44 8245.92,6837 6631.53,6917.89 Z m -1238.54,507.84 475.56,-1048.36 -822.3,347.13 z m -236.04,520.3 226.88,-500.13 -353.42,-714.72 -151.64,64.02 z m -658.11,77.69 629.08,-57.69 -590.54,-360.44 z m -330.51,30.27 313.17,-28.69 39.61,-429.65 -613.4,-374.36 z m -17.47,1.59 -261.95,-837.03 -898.9,943.4 z m -2298,286.05 444.76,322.25 650.53,-487.12 -931.85,-214.2 z m -356.66,-258.39 342.45,248.08 160.68,-372.65 -332.18,-76.36 z m -13.91,-10.11 166.05,-195.14 -637.74,-146.59 z m -11.13,13.11 -485.02,-351.41 190.73,697.25 z m 360.55,261.22 -346.64,-251.16 -302.73,355.82 234.54,857.45 z m -883.51,1651.09 286.22,181.5 169.72,-833.91 -448.01,83.21 z m -16.98,-10.7 7.73,-555.29 -683.345,126.89 z m -0.28,20.1 -646.86,-410.1 642.94,691.4 z m 299.82,190.1 -282.84,-179.3 -4.02,288.6 217.09,233.5 z m 779.56,500.6 -362.12,366.1 1042.48,1121.1 z m 1975.71,1610.3 -1228.06,-67.8 842.53,459.2 z m 727.83,40.1 -705,-38.9 -392.69,398.7 1159.35,631.8 z m 1862.34,111.7 -1765.05,891.2 1400.88,275.5 z m 16.66,4.2 -363.91,1165.8 1187.53,233.5 z m 23.42,6.1 821.14,1395.1 882.93,-286.4 z m 24.71,-4.4 1700.34,1106.3 1074.77,-348.5 z m 2854.41,-49.3 -39.6,782.2 497.9,-568.9 z m 486.2,207.4 904.9,421 -335.8,-1071.2 z m 551.5,-656.1 -1021.4,125.4 -15.4,304.8 469.2,218.3 z m 1296.2,-35.3 -1216.5,31.2 1472.7,401.4 z m 534,-13.7 -239,439.9 897.7,-456.8 z m 704.8,-1285.1 v 1236.8 l 742.8,-802.5 z m 14.8,-11.2 739.9,432.6 685.5,-740.5 z m 8.3,-19.4 1430.7,-309 -236.1,-703.1 z m -246.3,-1169.12 220.4,1168.72 1214.6,-1029.2 -138.7,-413.16 z m -86,-456.63 82.9,439.8 1293.9,-273.17 -55.9,-166.63 z m 23.4,-17.13 h 1291.7 l -198.7,-591.94 z m -32.5,-30.06 231.4,-879.54 -403.9,-19.45 z M 11753,8507.02 13458.8,9502.27 13282,8580.72 Z m 1165.4,-1821.41 -1184.5,1803.34 1544.8,74.47 z m -1217.6,338.69 1184.9,-358.73 -1194.9,-205.08 z m -764.9,-182.55 173.1,361.73 574.8,-173.99 -10.2,-571.95 -166.8,-28.65 z m -7.5,-15.72 554.7,-401.17 -813.5,-139.64 z m -1021.62,729.8 720.72,-1251.64 -904.77,651.9 z M 8191.37,8059.51 9250,7755.94 l 23.6,-459.75 -13.96,-6.42 z m -34.43,3.69 1084.8,-781.66 -959.5,-441.76 z m -17.43,2.05 125,-1220.42 -896.38,633.49 z m -1881.91,197.85 79.43,160.63 1789.03,-347.21 -772.62,-587.84 z m -141.66,-247.82 -218.32,481.25 338.14,-238.96 z m 203.66,411.83 -76.14,-153.99 -329.22,232.66 z m -1173.44,959.54 710.82,-854.45 -637.42,58.41 z m -15.67,-16.66 71.68,-777.8 -306.31,28.05 z m -9.47,27.15 -242.63,-775.31 -1156.28,105.98 z m -1078.21,557.35 -357.19,-1218.11 -651.17,487.54 z m -1037.24,-730.31 -437.35,-316.89 -410.27,951.53 z m -844,653.35 1868.22,88.69 -1009.7,-731.55 z m -21.16,35.42 -168.21,826.45 743.76,471.6 z m 1556.9,1667.45 -945.89,-332.3 688.55,1505.1 z m 1671.92,607.1 -1878.62,586.6 1233.74,68.1 z m 22.78,1.3 -644.83,654.6 687.91,38 z m 1873.05,793.5 -1856.26,-799.8 43.5,699.8 z m 1900.75,-207.6 -1808.85,222 2782.74,759.9 z m 505.53,-62.1 -483.99,59.4 973.35,981.5 40.2,-794.4 z m 32.16,-3.9 498.3,231.9 15,-294.9 z m 525.7,-308.2 -1555.21,-170.9 1000.13,465.4 543.48,-66.7 z m 17,1.9 -11.3,223.8 967.5,-118.8 z m 2014.4,-411.2 -948.1,506.3 1229.2,-31.5 z m 456.5,470.3 -87.6,-409.6 -292.5,-101.5 -61.3,32.8 285.6,482.3 z m 3.7,17 -149.6,3.8 235.4,397.5 z m 17.4,-0.4 91.2,426.7 236.4,-435.1 z m 449.3,-232.5 -539,-187.1 86,402.5 340.7,-8.7 z m 16.4,5.7 -108.9,200.5 639.5,-16.4 z m 199,-366.5 370.4,530.7 v -1212.7 z m -1126.2,-1627.9 1493.2,895.1 -219.4,-1164.07 z m 1188,-724.01 -1163.2,701.21 1245.8,-263 z m -1511.5,-295.22 1471.5,264.52 -1691.6,-986.99 z m -226.6,-768.76 1176.1,-1790.58 -1201.5,363.79 z m -17.4,-11.31 -25.1,-1410.3 -567.6,171.81 z M 9927.29,7579.21 11699.9,8477.77 11100,7224.16 Z m 987.01,-742.99 -260.3,-543.89 -722.25,1254.5 z m -963.5,717.98 1141.7,-345.67 -170.7,-356.59 z m -70.95,21.11 -589.51,-271.41 -22.95,447.03 z m -640.81,728 638.96,-709.67 -611.51,175.4 z m -126.67,140.63 108.47,-120.46 28.22,-549.47 -1075.68,308.46 z M 6773.44,9306.36 8117.8,8095.57 6344.91,8439.66 Z m -29.93,-21.93 -416.07,-841.39 -432.09,83.85 z m 6.17,28.48 -872.01,-778.83 -723.42,869.61 z m -1633.71,100.8 -1411.98,-675.58 359.37,1225.56 z m -1078.33,570.03 -1886.82,-89.59 587.34,1324.65 z m -245.06,1162.46 -1017.32,92.1 925.75,325.2 z m 581.26,653.6 482.71,-501.8 -143.89,-235.2 -902.18,81.7 -93.18,424.7 z m -13.02,13.6 -647.22,-227.3 -255.89,1166.2 z m 17.73,6.3 -906.39,942.3 1900.02,-593.4 z m 2794.14,383.4 -1730.36,-24.8 1859.38,801.1 z m 1999.37,553.6 469.95,-57.7 -979.03,-455.6 z m -550.28,-530.5 -1269.58,753.8 1798.37,-220.7 z m 1633.02,-333 -1576.1,319.7 1551.4,170.5 z m 466.1,-94.5 -448.7,91 -25.1,495.6 1010.5,111 z m 1489.5,107.8 -577.4,-200.4 -338.8,781.8 957.6,-511.4 z m 25,8.7 31.5,53.2 48,-25.6 z m 340.9,-112 -78,-365 -486.8,98.7 210.4,355.5 113.6,39.4 z m 3.8,17.4 -222.5,118.8 267.8,93 z m 566.8,-302.7 245.1,351.2 368.7,-678.9 z m -139.9,-200.3 751.5,-152.5 -1474.9,-884.2 z m -748.4,-1077.7 1188.3,-716.3 -1488.1,-267.52 z M 10525.2,8998.37 12238,10231.2 11939.9,9252.66 Z m -4.6,-18.24 1413.7,254.11 -221.3,-726.07 z m -26.5,-7.92 1203.6,-476.37 -1776.49,-900.53 z M 9229.49,8489.03 10473.9,8968.05 9901.69,7593 9237.63,8330.46 Z m -16.83,-6.46 6.81,-131.94 -89.97,99.9 z m -638.15,584.32 33.27,78.32 573.53,-51.98 30.45,-592.68 -94.55,-36.4 z m -7.37,-17.39 532.98,-591.9 -937.87,-361.04 z M 7642.5,9232.7 8123.19,8113.81 6795.63,9309.44 Z m -1966.1,596.92 1051.1,-498.3 -1569.39,89.29 z m -806.79,382.48 318.99,-151.2 -60.81,-634.08 -1047.14,547.19 z m -973.31,461.4 147.42,-671.9 -1263.76,1201.1 z m -4.64,21.1 -1109.26,525.9 1014.03,-91.9 z m 461.93,-218.9 -442.36,209.7 -96.9,441.6 888.35,-80.5 z m -291.71,-476.93 -146.01,665.43 428.72,-203.2 z m 298.26,454.83 486.39,-230.6 -769.43,-232.2 z m 776.13,553.6 130.1,-135.2 -51.56,-537.8 -343.83,-103.8 -501.85,237.9 352.61,576.5 z m -18.12,18.9 -386.48,34.9 137.17,224.3 z m -252.35,287 -474.19,493 987.89,347 z m 521.5,819.9 -107.57,-1121.6 -135.54,12.3 -266.15,276.7 z m 1723.93,-299.7 -160.58,-966.2 -1520.87,1287.5 z m 2.79,16.9 -1630.5,311.6 1686.3,24.2 z m 741.35,345.6 264.48,-381.5 -154.8,-126.7 -834.2,159.4 56.4,339.2 z m -11.77,17 -653.49,-9.4 127.62,767.9 z m 20.64,0.3 -522.06,753 1250.53,-742.5 z m 2423.16,-964.3 -1615.6,948 1583.9,-321.2 z m 16.8,8.2 -31.2,615 436.2,-88.4 z m 1128.9,379.8 -1112,-386 406.9,529 z m 31.8,11 -725.3,147.1 534.9,695.3 342.3,-789.7 z m 191.6,-38.9 -158.6,32.2 125.8,43.7 z m 20.5,-4.1 -37.1,85.6 556.9,193.3 -203.1,-343.2 z m 149.9,-345.9 -141.6,326.7 299.1,-60.7 z m 423.9,-978 -415.5,958.6 166.9,281.8 492.5,-99.9 z m -980.7,3.9 958.4,-39.4 -1710.8,-1231.27 z m -818,-1306.77 -1223.51,-471.01 -30.02,584.62 z m -1283.33,693.74 1278.93,-676.14 -1250.03,113.31 z m -275.4,145.55 257.75,-136.26 29.29,-570.58 -565.56,51.26 z m -415.47,-643.16 -1482.63,1646.64 1882.9,-995.43 -281.27,-662 z m 16.87,-18.71 95.11,-8.61 -28.01,-65.9 z m -25.1,2.27 84.84,-94.17 -408.06,-960.44 -484.55,1127.84 z M 6984.99,10806.6 8452.8,9176.43 l -798.61,72.41 z m -23.68,11.7 673.48,-1567.7 -854.41,77.43 z m -948.06,-722.8 718.96,-747.43 -1040.82,493.41 z m -357.54,371.7 -423.22,-127.7 49.5,516.2 z m 1313.09,404.7 159.26,958.2 819.73,-156.6 z m 1289.93,742.2 388.88,-561 -1663,-190.4 985.1,806.6 z m -13.96,20 -257.8,49.3 142.65,116.8 z m -111.64,191.1 -257.11,370.9 722.77,10.4 z m 485.27,375.2 183.58,-672.7 -533.19,101.9 -125.86,181.5 z m 202.34,-676.3 -183.75,673.3 1612.71,-946.3 z m 2648.86,-868.7 -1150.8,576.5 1147.3,398.2 198.7,-40.3 151.3,-349.1 z m 15.3,-7.7 339.7,573.5 411.8,-950 z m -8.7,-14.8 737.9,-369.7 -934.1,38.3 z m -1094.2,-294.5 -75.4,880.4 1154.2,-578.2 -200.2,-338.3 z m 1.5,-17.3 867.1,-35.5 -754.9,-1274.98 z m -1238.54,50.9 1221.24,-50.1 112.7,-1315.56 z m -11.52,-12.7 1311.76,-1342.94 -1277.46,675.32 z m -16.36,-15.4 33.01,-642.93 -250,132.2 z m -5.27,31.4 -226.92,-534.12 -1869.15,988.12 z m -3096.98,-256.8 -327.38,340.4 1228.43,370.7 z m 930.81,712.8 -181.19,-1492.05 -737.67,766.85 z m 2158.68,-436.9 -2095.18,453.9 1649.56,188.8 z m -181.4,690.2 -256,-29.3 -384.17,554.2 524.29,-100.2 z m 17.21,2 -114.38,419.1 1414.25,-270.2 z m 162.22,-659.3 -424.34,612.1 249.49,28.5 z m 1187.15,790.2 75.3,-878.4 -1216.08,49.9 z m -1160.77,-821.8 -184.02,674.2 1320.69,151.3 z M 5406.31,12152 6930.39,10861.8 5296.81,11009.9 Z m -137.8,-1257.5 -106.2,110.4 115.79,-10.5 z m 26.63,98.3 1616.8,-146.5 -1237.81,-373.5 -389.95,405.4 z m -104.83,-913.8 -296.29,140.5 318.99,96.2 z m 468.79,-241.21 -513.58,-405.28 59.52,620.59 z m -452.3,233.41 23.94,249.9 438.29,132.2 332.31,-345.4 -327.21,-258.24 z m 7781.9,1250 -717.9,-1028.6 240.7,1125.5 z m 148.3,182.6 589.1,-314.6 -708.4,143.6 z m -137.6,-167.2 -484.3,98.2 77,360 529.7,-282.9 z m 212.8,899.4 547.5,190 -365.9,-524.3 z m 170.6,-350.1 -251.1,-359.8 -535.9,286.1 48.5,226.7 551.5,191.4 z m -7867.72,2005.7 1765.18,-891.3 -1826.89,-100.7 z m 610.02,-5896.49 124.83,252.48 1089.21,-769.79 -728.08,-553.96 z m 3577.67,-1045.75 -337.7,-1100.43 -71.65,1395.36 z m -410.46,316.85 -1.03,19.27 599.27,275.91 -182.51,-594.77 z m 5315.09,1627.72 422.8,-228.98 -507.9,-24.5 z m -103.5,-254.33 -782.9,-37.73 -236.8,900.36 1107.9,-600 z m -12145.07,2962.2 362.86,-366.9 -753.15,-477.5 -70.91,348.4 z m -520.59,-204.1 -187.19,919.7 484.38,-489.7 z m 309.45,417.6 199.09,-201.3 -453.34,-487.5 -50.47,247.9 z m 9498.41,-6899.4 -970.4,1343.62 989.7,-263.15 z m 41.8,1382.04 2.6,145.12 1213,208.21 -587.6,-807.56 z m 2282.8,1354.45 -245.3,932.52 772.6,37.26 -233.6,-695.79 z m 5,-18.8 277.3,258.7 -193.6,-576.79 z m -2873.4,-3990.01 -277.5,366.31 55.7,434.4 512.4,-511.87 z m 10.5,-13.75 281.2,279.55 -59.4,-572.33 z m -382.3,-355.78 91.2,711.56 268.4,-354.2 z m 370,343.58 224.3,-296.09 -582.7,-60.16 z m 4186,8467.47 -1495,364.1 125,801.6 z m -1826.7,-6171.59 -524.5,746.84 1105.4,605.82 z m 2839.8,4208.39 c 0.2,0.5 0.3,1.1 0.4,1.7 0,0 0,0.1 0,0.2 0,0.5 0,1 0,1.5 0,0.1 0,0.1 0,0.1 0,0.2 -0.1,0.3 -0.1,0.4 -0.1,0.4 -0.2,0.8 -0.3,1.2 -0.1,0.2 -0.2,0.4 -0.2,0.7 -0.1,0.2 -0.2,0.4 -0.3,0.6 l -971.9,1943.8 c -0.3,0.6 -0.7,1.2 -1.2,1.7 -0.1,0.1 -0.2,0.3 -0.4,0.4 -0.1,0.2 -0.3,0.4 -0.5,0.6 l -1409.2,1198.9 c 0,0 0,0 0,0 0,0 0,0 0,0 v 0 c -0.1,0.1 -0.2,0.1 -0.3,0.2 -0.5,0.4 -1.1,0.8 -1.6,1 -0.2,0.1 -0.5,0.2 -0.7,0.3 -0.5,0.1 -1,0.3 -1.5,0.4 -0.1,0 -0.1,0.1 -0.2,0.1 l -2285.8,343.8 -1694.95,1081.7 c -0.09,0.1 -0.17,0.1 -0.22,0.1 -0.47,0.3 -0.94,0.5 -1.45,0.7 -0.17,0.1 -0.34,0.1 -0.56,0.2 -0.43,0.1 -0.9,0.2 -1.37,0.3 -0.13,0 -0.26,0 -0.38,0 l -3219.67,241.6 v 0 c -0.04,0 -0.04,0 -0.09,0 -0.6,0 -1.24,0 -1.84,-0.1 -0.26,-0.1 -0.47,-0.1 -0.68,-0.2 -0.18,0 -0.39,0 -0.6,-0.1 L 3623.7,13977.6 c -1.22,-0.4 -2.33,-1 -3.27,-1.8 L 1631.5,12350.5 c -0.08,-0.1 -0.13,-0.1 -0.21,-0.2 -0.38,-0.4 -0.7,-0.8 -1.02,-1.1 -0.18,-0.2 -0.39,-0.5 -0.54,-0.7 -0.31,-0.5 -0.54,-1 -0.75,-1.6 -0.07,-0.2 -0.19,-0.3 -0.25,-0.5 L 946.721,10107.1 c -0.044,-0.1 -0.057,-0.3 -0.091,-0.4 -0.055,-0.2 -0.107,-0.4 -0.145,-0.7 -0.047,-0.3 -0.069,-0.5 -0.09,-0.8 -0.017,-0.2 -0.031,-0.4 -0.025,-0.7 0,-0.3 0.025,-0.5 0.05,-0.8 0.026,-0.2 0.048,-0.4 0.087,-0.7 0.05,-0.2 0.123,-0.5 0.195,-0.7 0.061,-0.2 0.121,-0.5 0.206,-0.7 0.022,-0.1 0.03,-0.1 0.057,-0.2 L 1685.81,8259.97 c 0.09,-0.21 0.22,-0.43 0.33,-0.64 0.07,-0.13 0.1,-0.26 0.17,-0.34 0.03,-0.09 0.07,-0.13 0.11,-0.18 0.31,-0.55 0.69,-1.07 1.11,-1.5 0.02,-0.04 0.03,-0.04 0.05,-0.08 0.06,-0.04 0.13,-0.09 0.19,-0.13 0.1,-0.13 0.2,-0.21 0.3,-0.3 0.22,-0.17 0.45,-0.39 0.69,-0.56 0.18,-0.12 0.37,-0.25 0.55,-0.34 0.18,-0.13 0.36,-0.25 0.55,-0.34 l 1466.33,-750.22 c 0.19,-0.13 0.42,-0.13 0.62,-0.22 0.46,-0.17 0.93,-0.34 1.43,-0.47 0.38,-0.08 0.74,-0.13 1.12,-0.17 0.24,0 0.46,-0.08 0.7,-0.08 0.01,0 0.02,0 0.03,0 0.26,0 0.5,0.08 0.75,0.08 0.21,0.04 0.42,0 0.64,0 l 1449.43,237.84 781.27,-1200.21 c 0.04,-0.04 0.08,-0.08 0.08,-0.13 0.18,-0.21 0.31,-0.38 0.48,-0.59 0.04,-0.05 0.04,-0.09 0.08,-0.13 0.09,-0.09 0.13,-0.13 0.22,-0.22 0.12,-0.17 0.25,-0.3 0.42,-0.47 0.05,-0.04 0.13,-0.13 0.22,-0.17 0.09,-0.08 0.21,-0.17 0.3,-0.26 0.13,-0.08 0.21,-0.17 0.34,-0.3 0.21,-0.13 0.39,-0.25 0.6,-0.34 0.13,-0.08 0.3,-0.17 0.43,-0.26 0.43,-0.25 0.9,-0.42 1.37,-0.6 0.13,-0.04 0.21,-0.08 0.34,-0.12 0.13,0 0.22,-0.05 0.35,-0.09 0.17,-0.04 0.34,-0.04 0.51,-0.08 0.25,-0.05 0.56,-0.09 0.81,-0.13 0.05,0 0.09,0 0.13,0 0.04,0 0.09,0 0.13,0 l 1974.58,-90.79 895.74,-782.38 c 0.42,-0.39 0.9,-0.69 1.41,-0.98 0.04,-0.05 0.13,-0.05 0.17,-0.09 0.43,-0.21 0.94,-0.47 1.41,-0.6 l 0.05,-0.04 c 0.04,0 0.04,0 0.04,0 L 9962.15,5118.97 10710.9,3247.2 c 0,-0.12 0.1,-0.17 0.1,-0.25 0,-0.09 0,-0.17 0.1,-0.26 0.1,-0.21 0.2,-0.38 0.4,-0.56 0.3,-0.47 0.5,-0.94 0.9,-1.32 0.2,-0.26 0.4,-0.47 0.7,-0.69 0.2,-0.21 0.4,-0.47 0.7,-0.68 l 1014.5,-741.66 c 1.4,-1.11 3.2,-1.67 5,-1.67 0.6,0 1.3,0.09 1.9,0.21 2.4,0.52 4.5,2.06 5.6,4.24 l 296.1,539.92 c 0.9,1.8 1.3,3.85 0.9,5.82 l -373.9,1835.32 1801.8,1002.92 c 0.1,0.05 0.2,0.13 0.3,0.18 0.6,0.38 1.2,0.81 1.7,1.37 0.1,0.08 0.2,0.12 0.3,0.25 0.5,0.56 1,1.2 1.3,1.93 0,0.09 0,0.13 0.1,0.21 0,0.05 0,0.09 0.1,0.18 l 595.7,1387.17 1668.8,1081.29 c 0,0 0,0 0,0.04 0,0 0,0 0,0 0.7,0.47 1.3,1.07 1.9,1.76 0.1,0.17 0.2,0.38 0.4,0.6 0.4,0.55 0.7,1.15 1,1.79 0,0.13 0.1,0.26 0.1,0.39 l 562.2,1756.1 v 0 0.1" /></g><g
         transform="scale(2.1143)"
         id="g22"><path
           id="path24"
           style="fill:#4d4d4d;fill-opacity:1;fill-rule:nonzero;stroke:none"
           d="m 11034.1,16229.1 c 0,-39.2 -31.7,-71 -70.9,-71 -39.2,0 -70.9,31.8 -70.9,71 0,39.1 31.7,70.9 70.9,70.9 39.2,0 70.9,-31.8 70.9,-70.9" /></g><g
         transform="scale(2.1489)"
         id="g26"><path
           id="path28"
           style="fill:#4d4d4d;fill-opacity:1;fill-rule:nonzero;stroke:none"
           d="m 7357.7,16230.2 c 0,-38.6 -31.22,-69.8 -69.8,-69.8 -38.53,0 -69.8,31.2 -69.8,69.8 0,38.5 31.27,69.8 69.8,69.8 38.58,0 69.8,-31.3 69.8,-69.8" /></g><g
         transform="scale(2.01049)"
         id="g30"><path
           id="path32"
           style="fill:#4d4d4d;fill-opacity:1;fill-rule:nonzero;stroke:none"
           d="m 4286.36,16225.4 c 0,-41.2 -33.4,-74.6 -74.61,-74.6 -41.21,0 -74.61,33.4 -74.61,74.6 0,41.2 33.4,74.6 74.61,74.6 41.21,0 74.61,-33.4 74.61,-74.6" /></g><g
         transform="scale(1.77762)"
         id="g34"><path
           id="path36"
           style="fill:#4d4d4d;fill-opacity:1;fill-rule:nonzero;stroke:none"
           d="m 2234.74,16215.6 c 0,-46.6 -37.78,-84.4 -84.39,-84.4 -46.6,0 -84.38,37.8 -84.38,84.4 0,46.6 37.78,84.4 84.38,84.4 46.61,0 84.39,-37.8 84.39,-84.4" /></g><g
         transform="scale(1.45682)"
         id="g38"><path
           id="path40"
           style="fill:#4d4d4d;fill-opacity:1;fill-rule:nonzero;stroke:none"
           d="m 1633.62,16197 c 0,-56.9 -46.1,-102.9 -102.96,-102.9 -56.86,0 -102.96,46 -102.96,102.9 0,56.9 46.1,103 102.96,103 56.86,0 102.96,-46.1 102.96,-103" /></g><g
         transform="scale(1.19301)"
         id="g42"><path
           id="path44"
           style="fill:#4d4d4d;fill-opacity:1;fill-rule:nonzero;stroke:none"
           d="m 3441.08,16174.3 c 0,-69.5 -56.29,-125.8 -125.73,-125.8 -69.44,0 -125.73,56.3 -125.73,125.8 0,69.4 56.29,125.7 125.73,125.7 69.44,0 125.73,-56.3 125.73,-125.7" /></g><g
         transform="scale(1.42534)"
         id="g46"><path
           id="path48"
           style="fill:#4d4d4d;fill-opacity:1;fill-rule:nonzero;stroke:none"
           d="m 3606.94,16194.8 c 0,-58.2 -47.12,-105.3 -105.24,-105.3 -58.12,0 -105.24,47.1 -105.24,105.3 0,58.1 47.12,105.2 105.24,105.2 58.12,0 105.24,-47.1 105.24,-105.2" /></g><g
         transform="scale(1.25875)"
         id="g50"><path
           id="path52"
           style="fill:#4d4d4d;fill-opacity:1;fill-rule:nonzero;stroke:none"
           d="m 6965.35,16180.8 c 0,-65.8 -53.35,-119.1 -119.17,-119.1 -65.81,0 -119.17,53.3 -119.17,119.1 0,65.8 53.36,119.2 119.17,119.2 65.82,0 119.17,-53.4 119.17,-119.2" /></g><g
         transform="scale(1.43841)"
         id="g54"><path
           id="path56"
           style="fill:#4d4d4d;fill-opacity:1;fill-rule:nonzero;stroke:none"
           d="m 6692.34,16195.7 c 0,-57.6 -46.69,-104.3 -104.28,-104.3 -57.6,0 -104.29,46.7 -104.29,104.3 0,57.6 46.69,104.3 104.29,104.3 57.59,0 104.28,-46.7 104.28,-104.3" /></g><g
         transform="scale(1.61852)"
         id="g58"><path
           id="path60"
           style="fill:#4d4d4d;fill-opacity:1;fill-rule:nonzero;stroke:none"
           d="m 4039.06,16207.3 c 0,-51.1 -41.5,-92.7 -92.68,-92.7 -51.18,0 -92.68,41.6 -92.68,92.7 0,51.2 41.5,92.7 92.68,92.7 51.18,0 92.68,-41.5 92.68,-92.7" /></g><g
         transform="scale(1.84011)"
         id="g62"><path
           id="path64"
           style="fill:#4d4d4d;fill-opacity:1;fill-rule:nonzero;stroke:none"
           d="m 4450.63,16218.5 c 0,-45.1 -36.5,-81.5 -81.52,-81.5 -45.02,0 -81.51,36.4 -81.51,81.5 0,45 36.49,81.5 81.51,81.5 45.02,0 81.52,-36.5 81.52,-81.5" /></g><g
         transform="scale(2.00128)"
         id="g66"><path
           id="path68"
           style="fill:#4d4d4d;fill-opacity:1;fill-rule:nonzero;stroke:none"
           d="m 6501.13,16225 c 0,-41.3 -33.53,-74.9 -74.95,-74.9 -41.38,0 -74.96,33.6 -74.96,74.9 0,41.4 33.58,75 74.96,75 41.42,0 74.95,-33.6 74.95,-75" /></g><g
         transform="scale(1.75258)"
         id="g70"><path
           id="path72"
           style="fill:#4d4d4d;fill-opacity:1;fill-rule:nonzero;stroke:none"
           d="m 7279.83,16214.4 c 0,-47.3 -38.35,-85.6 -85.59,-85.6 -47.3,0 -85.59,38.3 -85.59,85.6 0,47.3 38.29,85.6 85.59,85.6 47.24,0 85.59,-38.3 85.59,-85.6" /></g><g
         transform="scale(2.0759)"
         id="g74"><path
           id="path76"
           style="fill:#4d4d4d;fill-opacity:1;fill-rule:nonzero;stroke:none"
           d="m 9246.76,16227.7 c 0,-39.9 -32.33,-72.2 -72.26,-72.2 -39.89,0 -72.26,32.3 -72.26,72.2 0,39.9 32.37,72.3 72.26,72.3 39.93,0 72.26,-32.4 72.26,-72.3" /></g><g
         transform="scale(1.87069)"
         id="g78"><path
           id="path80"
           style="fill:#4d4d4d;fill-opacity:1;fill-rule:nonzero;stroke:none"
           d="m 9208.66,16219.8 c 0,-44.3 -35.93,-80.2 -80.19,-80.2 -44.26,0 -80.18,35.9 -80.18,80.2 0,44.3 35.92,80.2 80.18,80.2 44.26,0 80.19,-35.9 80.19,-80.2" /></g><g
         transform="scale(1.9824)"
         id="g82"><path
           id="path84"
           style="fill:#4d4d4d;fill-opacity:1;fill-rule:nonzero;stroke:none"
           d="m 12053.5,16224.3 c 0,-41.8 -33.8,-75.6 -75.7,-75.6 -41.7,0 -75.6,33.8 -75.6,75.6 0,41.8 33.9,75.7 75.6,75.7 41.9,0 75.7,-33.9 75.7,-75.7" /></g><g
         transform="scale(1.80098)"
         id="g86"><path
           id="path88"
           style="fill:#4d4d4d;fill-opacity:1;fill-rule:nonzero;stroke:none"
           d="m 14704.6,16216.7 c 0,-46 -37.2,-83.3 -83.2,-83.3 -46,0 -83.3,37.3 -83.3,83.3 0,46 37.3,83.3 83.3,83.3 46,0 83.2,-37.3 83.2,-83.3" /></g><g
         transform="scale(1.98363)"
         id="g90"><path
           id="path92"
           style="fill:#4d4d4d;fill-opacity:1;fill-rule:nonzero;stroke:none"
           d="m 16300,14647.9 c 0,-41.7 -33.9,-75.6 -75.6,-75.6 -41.8,0 -75.6,33.9 -75.6,75.6 0,41.8 33.8,75.6 75.6,75.6 41.7,0 75.6,-33.8 75.6,-75.6" /></g><g
         transform="scale(1.98363)"
         id="g94"><path
           id="path96"
           style="fill:#4d4d4d;fill-opacity:1;fill-rule:nonzero;stroke:none"
           d="m 16300,13148.6 c 0,-41.7 -33.9,-75.6 -75.6,-75.6 -41.8,0 -75.6,33.9 -75.6,75.6 0,41.7 33.8,75.6 75.6,75.6 41.7,0 75.6,-33.9 75.6,-75.6" /></g><g
         transform="scale(1.93907)"
         id="g98"><path
           id="path100"
           style="fill:#4d4d4d;fill-opacity:1;fill-rule:nonzero;stroke:none"
           d="m 16300,11463.8 c 0,-42.8 -34.7,-77.4 -77.4,-77.4 -42.7,0 -77.3,34.6 -77.3,77.4 0,42.7 34.6,77.3 77.3,77.3 42.7,0 77.4,-34.6 77.4,-77.3" /></g><g
         transform="scale(1.76469)"
         id="g102"><path
           id="path104"
           style="fill:#4d4d4d;fill-opacity:1;fill-rule:nonzero;stroke:none"
           d="m 16300,13567.6 c 0,-47 -38.1,-85 -85,-85 -47,0 -85,38 -85,85 0,46.9 38,85 85,85 46.9,0 85,-38.1 85,-85" /></g><g
         transform="scale(1.61852)"
         id="g106"><path
           id="path108"
           style="fill:#4d4d4d;fill-opacity:1;fill-rule:nonzero;stroke:none"
           d="m 14948.7,16207.3 c 0,-51.1 -41.5,-92.7 -92.7,-92.7 -51.1,0 -92.6,41.6 -92.6,92.7 0,51.2 41.5,92.7 92.6,92.7 51.2,0 92.7,-41.5 92.7,-92.7" /></g><g
         transform="scale(1.49647)"
         id="g110"><path
           id="path112"
           style="fill:#4d4d4d;fill-opacity:1;fill-rule:nonzero;stroke:none"
           d="m 14337.5,16199.8 c 0,-55.4 -45,-100.3 -100.3,-100.3 -55.4,0 -100.2,44.9 -100.2,100.3 0,55.4 44.8,100.2 100.2,100.2 55.3,0 100.3,-44.8 100.3,-100.2" /></g><g
         transform="scale(1.51195)"
         id="g114"><path
           id="path116"
           style="fill:#4d4d4d;fill-opacity:1;fill-rule:nonzero;stroke:none"
           d="m 16300,13874.5 c 0,-54.9 -44.4,-99.3 -99.2,-99.3 -54.8,0 -99.2,44.4 -99.2,99.3 0,54.7 44.4,99.2 99.2,99.2 54.8,0 99.2,-44.5 99.2,-99.2" /></g><g
         transform="scale(1.86148)"
         id="g118"><path
           id="path120"
           style="fill:#4d4d4d;fill-opacity:1;fill-rule:nonzero;stroke:none"
           d="m 16170.3,16219.4 c 0,-44.5 -36.1,-80.6 -80.5,-80.6 -44.5,0 -80.6,36.1 -80.6,80.6 0,44.5 36.1,80.6 80.6,80.6 44.4,0 80.5,-36.1 80.5,-80.6" /></g><g
         transform="scale(1.56372)"
         id="g122"><path
           id="path124"
           style="fill:#4d4d4d;fill-opacity:1;fill-rule:nonzero;stroke:none"
           d="m 10484.6,16204.1 c 0,-53 -43,-96 -95.9,-96 -53.1,0 -96,43 -96,96 0,52.9 42.9,95.9 96,95.9 52.9,0 95.9,-43 95.9,-95.9" /></g><g
         transform="scale(1.34445)"
         id="g126"><path
           id="path128"
           style="fill:#4d4d4d;fill-opacity:1;fill-rule:nonzero;stroke:none"
           d="m 11871.8,16188.4 c 0,-61.6 -49.9,-111.5 -111.6,-111.5 -61.6,0 -111.6,49.9 -111.6,111.5 0,61.7 50,111.6 111.6,111.6 61.7,0 111.6,-49.9 111.6,-111.6" /></g><path
         id="path130"
         style="fill:#4d4d4d;fill-opacity:1;fill-rule:nonzero;stroke:none"
         d="m 15580.1,16137.3 c 0,-82.9 -67.1,-150 -150,-150 -82.8,0 -150,67.1 -150,150 0,82.8 67.2,150 150,150 82.9,0 150,-67.2 150,-150" /><g
         transform="scale(1.23005)"
         id="g132"><path
           id="path134"
           style="fill:#4d4d4d;fill-opacity:1;fill-rule:nonzero;stroke:none"
           d="m 11278.7,16178.1 c 0,-67.4 -54.6,-122 -122,-122 -67.3,0 -121.9,54.6 -121.9,122 0,67.3 54.6,121.9 121.9,121.9 67.4,0 122,-54.6 122,-121.9" /></g><g
         transform="scale(1.17629)"
         id="g136"><path
           id="path138"
           style="fill:#4d4d4d;fill-opacity:1;fill-rule:nonzero;stroke:none"
           d="m 16300,16043.1 c 0,-70.5 -57.1,-127.5 -127.5,-127.5 -70.5,0 -127.5,57 -127.5,127.5 0,70.4 57,127.5 127.5,127.5 70.4,0 127.5,-57.1 127.5,-127.5" /></g><g
         transform="scale(1.19469)"
         id="g140"><path
           id="path142"
           style="fill:#4d4d4d;fill-opacity:1;fill-rule:nonzero;stroke:none"
           d="m 16300,13344.2 c 0,-69.3 -56.2,-125.6 -125.6,-125.6 -69.3,0 -125.5,56.3 -125.5,125.6 0,69.3 56.2,125.5 125.5,125.5 69.4,0 125.6,-56.2 125.6,-125.5" /></g><g
         transform="scale(1.35)"
         id="g144"><path
           id="path146"
           style="fill:#4d4d4d;fill-opacity:1;fill-rule:nonzero;stroke:none"
           d="m 16300,10032.6 c 0,-61.34 -49.8,-111.12 -111.1,-111.12 -61.4,0 -111.1,49.78 -111.1,111.12 0,61.3 49.7,111.1 111.1,111.1 61.3,0 111.1,-49.8 111.1,-111.1" /></g><g
         transform="scale(1.53563)"
         id="g148"><path
           id="path150"
           style="fill:#4d4d4d;fill-opacity:1;fill-rule:nonzero;stroke:none"
           d="m 16300,9540.61 c 0,-53.92 -43.8,-97.68 -97.7,-97.68 -54,0 -97.7,43.76 -97.7,97.68 0,53.98 43.7,97.68 97.7,97.68 53.9,0 97.7,-43.7 97.7,-97.68" /></g><g
         transform="scale(1.68802)"
         id="g152"><path
           id="path154"
           style="fill:#4d4d4d;fill-opacity:1;fill-rule:nonzero;stroke:none"
           d="m 16300,11754.3 c 0,-49.1 -39.8,-88.9 -88.9,-88.9 -49.1,0 -88.8,39.8 -88.8,88.9 0,49 39.7,88.8 88.8,88.8 49.1,0 88.9,-39.8 88.9,-88.8" /></g><g
         transform="scale(2.16691)"
         id="g156"><path
           id="path158"
           style="fill:#4d4d4d;fill-opacity:1;fill-rule:nonzero;stroke:none"
           d="m 16300,9330.18 c 0,-38.26 -31,-69.22 -69.2,-69.22 -38.3,0 -69.2,30.96 -69.2,69.22 0,38.21 30.9,69.22 69.2,69.22 38.2,0 69.2,-31.01 69.2,-69.22" /></g><g
         transform="scale(2.26262)"
         id="g160"><path
           id="path162"
           style="fill:#4d4d4d;fill-opacity:1;fill-rule:nonzero;stroke:none"
           d="m 16300,9824.45 c 0,-36.63 -29.7,-66.29 -66.3,-66.29 -36.6,0 -66.3,29.66 -66.3,66.29 0,36.6 29.7,66.3 66.3,66.3 36.6,0 66.3,-29.7 66.3,-66.3" /></g><g
         transform="scale(2.19472)"
         id="g164"><path
           id="path166"
           style="fill:#4d4d4d;fill-opacity:1;fill-rule:nonzero;stroke:none"
           d="m 16300,11545.3 c 0,-37.8 -30.6,-68.3 -68.3,-68.3 -37.8,0 -68.4,30.5 -68.4,68.3 0,37.7 30.6,68.4 68.4,68.4 37.7,0 68.3,-30.7 68.3,-68.4" /></g><g
         transform="scale(1.86056)"
         id="g168"><path
           id="path170"
           style="fill:#4d4d4d;fill-opacity:1;fill-rule:nonzero;stroke:none"
           d="m 16300,8363.03 c 0,-44.5 -36.1,-80.62 -80.6,-80.62 -44.5,0 -80.6,36.12 -80.6,80.62 0,44.55 36.1,80.62 80.6,80.62 44.5,0 80.6,-36.07 80.6,-80.62" /></g><g
         transform="scale(1.42813)"
         id="g172"><path
           id="path174"
           style="fill:#4d4d4d;fill-opacity:1;fill-rule:nonzero;stroke:none"
           d="m 16300,12389.7 c 0,-58 -47.1,-105 -105,-105 -58.1,0 -105.1,47 -105.1,105 0,58 47,105 105.1,105 57.9,0 105,-47 105,-105" /></g><g
         transform="scale(1.77389)"
         id="g176"><path
           id="path178"
           style="fill:#4d4d4d;fill-opacity:1;fill-rule:nonzero;stroke:none"
           d="m 16300,7677.03 c 0,-46.68 -37.9,-84.56 -84.6,-84.56 -46.7,0 -84.5,37.88 -84.5,84.56 0,46.73 37.8,84.56 84.5,84.56 46.7,0 84.6,-37.83 84.6,-84.56" /></g><g
         transform="scale(1.56707)"
         id="g180"><path
           id="path182"
           style="fill:#4d4d4d;fill-opacity:1;fill-rule:nonzero;stroke:none"
           d="m 16300,6650.04 c 0,-52.84 -42.9,-95.72 -95.7,-95.72 -52.9,0 -95.7,42.88 -95.7,95.72 0,52.9 42.8,95.72 95.7,95.72 52.8,0 95.7,-42.82 95.7,-95.72" /></g><g
         transform="scale(1.64312)"
         id="g184"><path
           id="path186"
           style="fill:#4d4d4d;fill-opacity:1;fill-rule:nonzero;stroke:none"
           d="m 16300,5588.65 c 0,-50.39 -40.8,-91.29 -91.3,-91.29 -50.4,0 -91.3,40.9 -91.3,91.29 0,50.45 40.9,91.29 91.3,91.29 50.5,0 91.3,-40.84 91.3,-91.29" /></g><g
         transform="scale(1.63391)"
         id="g188"><path
           id="path190"
           style="fill:#4d4d4d;fill-opacity:1;fill-rule:nonzero;stroke:none"
           d="m 16300,4737.21 c 0,-50.73 -41.1,-91.8 -91.8,-91.8 -50.7,0 -91.8,41.07 -91.8,91.8 0,50.68 41.1,91.81 91.8,91.81 50.7,0 91.8,-41.13 91.8,-91.81" /></g><g
         transform="scale(1.35779)"
         id="g192"><path
           id="path194"
           style="fill:#4d4d4d;fill-opacity:1;fill-rule:nonzero;stroke:none"
           d="m 8941.99,16189.5 c 0,-61 -49.42,-110.4 -110.47,-110.4 -60.99,0 -110.48,49.4 -110.48,110.4 0,61 49.49,110.5 110.48,110.5 61.05,0 110.47,-49.5 110.47,-110.5" /></g><g
         transform="scale(1.75921)"
         id="g196"><path
           id="path198"
           style="fill:#4d4d4d;fill-opacity:1;fill-rule:nonzero;stroke:none"
           d="m 11531.7,16214.7 c 0,-47.1 -38.2,-85.2 -85.3,-85.2 -47.1,0 -85.2,38.1 -85.2,85.2 0,47.1 38.1,85.3 85.2,85.3 47.1,0 85.3,-38.2 85.3,-85.3" /></g><g
         transform="scale(1.08553)"
         id="g200"><path
           id="path202"
           style="fill:#4d4d4d;fill-opacity:1;fill-rule:nonzero;stroke:none"
           d="m 6936.14,16161.8 c 0,-76.3 -61.87,-138.2 -138.18,-138.2 -76.32,0 -138.18,61.9 -138.18,138.2 0,76.3 61.86,138.2 138.18,138.2 76.31,0 138.18,-61.9 138.18,-138.2" /></g><g
         transform="scale(1.11972)"
         id="g204"><path
           id="path206"
           style="fill:#4d4d4d;fill-opacity:1;fill-rule:nonzero;stroke:none"
           d="m 9758.66,16166 c 0,-73.9 -60.02,-133.9 -133.97,-133.9 -74.03,0 -133.96,60 -133.96,133.9 0,74 59.93,134 133.96,134 73.95,0 133.97,-60 133.97,-134" /></g><path
         id="path208"
         style="fill:#4d4d4d;fill-opacity:1;fill-rule:nonzero;stroke:none"
         d="m 12758.5,15287.9 c 0,-82.9 -67.2,-150 -150,-150 -82.9,0 -150,67.1 -150,150 0,82.8 67.1,150 150,150 82.8,0 150,-67.2 150,-150" /><g
         transform="scale(1.06604)"
         id="g210"><path
           id="path212"
           style="fill:#4d4d4d;fill-opacity:1;fill-rule:nonzero;stroke:none"
           d="m 16300,14141.6 c 0,-77.7 -63,-140.8 -140.7,-140.8 -77.7,0 -140.7,63.1 -140.7,140.8 0,77.7 63,140.7 140.7,140.7 77.7,0 140.7,-63 140.7,-140.7" /></g><g
         transform="scale(1.19469)"
         id="g214"><path
           id="path216"
           style="fill:#4d4d4d;fill-opacity:1;fill-rule:nonzero;stroke:none"
           d="m 16300,11085.7 c 0,-69.3 -56.2,-125.6 -125.6,-125.6 -69.3,0 -125.5,56.3 -125.5,125.6 0,69.3 56.2,125.5 125.5,125.5 69.4,0 125.6,-56.2 125.6,-125.5" /></g><g
         transform="scale(1.43733)"
         id="g218"><path
           id="path220"
           style="fill:#4d4d4d;fill-opacity:1;fill-rule:nonzero;stroke:none"
           d="m 16300,8327.87 c 0,-57.61 -46.8,-104.36 -104.4,-104.36 -57.6,0 -104.3,46.75 -104.3,104.36 0,57.6 46.7,104.36 104.3,104.36 57.6,0 104.4,-46.76 104.4,-104.36" /></g><g
         transform="scale(1.54481)"
         id="g222"><path
           id="path224"
           style="fill:#4d4d4d;fill-opacity:1;fill-rule:nonzero;stroke:none"
           d="m 16300,4913.35 c 0,-53.66 -43.5,-97.09 -97.1,-97.09 -53.7,0 -97.1,43.43 -97.1,97.09 0,53.6 43.4,97.1 97.1,97.1 53.6,0 97.1,-43.5 97.1,-97.1" /></g><g
         transform="scale(1.69015)"
         id="g226"><path
           id="path228"
           style="fill:#4d4d4d;fill-opacity:1;fill-rule:nonzero;stroke:none"
           d="m 16300,3466.09 c 0,-48.99 -39.8,-88.75 -88.7,-88.75 -49.1,0 -88.8,39.76 -88.8,88.75 0,49.05 39.7,88.75 88.8,88.75 48.9,0 88.7,-39.7 88.7,-88.75" /></g><g
         transform="scale(1.73256)"
         id="g230"><path
           id="path232"
           style="fill:#4d4d4d;fill-opacity:1;fill-rule:nonzero;stroke:none"
           d="m 16300,4108.95 c 0,-47.79 -38.8,-86.57 -86.6,-86.57 -47.8,0 -86.6,38.78 -86.6,86.57 0,47.85 38.8,86.58 86.6,86.58 47.8,0 86.6,-38.73 86.6,-86.58" /></g><g
         transform="scale(1.67882)"
         id="g234"><path
           id="path236"
           style="fill:#4d4d4d;fill-opacity:1;fill-rule:nonzero;stroke:none"
           d="m 16300,6801.85 c 0,-49.32 -40,-89.35 -89.3,-89.35 -49.4,0 -89.4,40.03 -89.4,89.35 0,49.38 40,89.35 89.4,89.35 49.3,0 89.3,-39.97 89.3,-89.35" /></g><g
         transform="scale(1.93774)"
         id="g238"><path
           id="path240"
           style="fill:#4d4d4d;fill-opacity:1;fill-rule:nonzero;stroke:none"
           d="m 16300,7105.28 c 0,-42.73 -34.6,-77.41 -77.4,-77.41 -42.7,0 -77.4,34.68 -77.4,77.41 0,42.78 34.7,77.41 77.4,77.41 42.8,0 77.4,-34.63 77.4,-77.41" /></g><g
         transform="scale(2.02324)"
         id="g242"><path
           id="path244"
           style="fill:#4d4d4d;fill-opacity:1;fill-rule:nonzero;stroke:none"
           d="m 16300,8408.89 c 0,-40.92 -33.2,-74.13 -74.1,-74.13 -41,0 -74.2,33.21 -74.2,74.13 0,40.98 33.2,74.14 74.2,74.14 40.9,0 74.1,-33.16 74.1,-74.14" /></g><g
         transform="scale(2.26262)"
         id="g246"><path
           id="path248"
           style="fill:#4d4d4d;fill-opacity:1;fill-rule:nonzero;stroke:none"
           d="m 16300,8636.67 c 0,-36.59 -29.7,-66.29 -66.3,-66.29 -36.6,0 -66.3,29.7 -66.3,66.29 0,36.6 29.7,66.3 66.3,66.3 36.6,0 66.3,-29.7 66.3,-66.3" /></g><g
         transform="scale(2.34315)"
         id="g250"><path
           id="path252"
           style="fill:#4d4d4d;fill-opacity:1;fill-rule:nonzero;stroke:none"
           d="m 16300,10090 c 0,-35.3 -28.6,-64 -64,-64 -35.4,0 -64,28.7 -64,64 0,35.4 28.6,64.1 64,64.1 35.4,0 64,-28.7 64,-64.1" /></g><g
         transform="scale(2.00203)"
         id="g254"><path
           id="path256"
           style="fill:#4d4d4d;fill-opacity:1;fill-rule:nonzero;stroke:none"
           d="m 16300,15474.9 c 0,-41.4 -33.6,-74.9 -74.9,-74.9 -41.4,0 -74.9,33.5 -74.9,74.9 0,41.4 33.5,74.9 74.9,74.9 41.3,0 74.9,-33.5 74.9,-74.9" /></g><g
         transform="scale(2.20392)"
         id="g258"><path
           id="path260"
           style="fill:#4d4d4d;fill-opacity:1;fill-rule:nonzero;stroke:none"
           d="m 16300,12787 c 0,-37.6 -30.4,-68.1 -68.1,-68.1 -37.5,0 -68,30.5 -68,68.1 0,37.6 30.5,68 68,68 37.7,0 68.1,-30.4 68.1,-68" /></g><g
         transform="scale(1.95919)"
         id="g262"><path
           id="path264"
           style="fill:#4d4d4d;fill-opacity:1;fill-rule:nonzero;stroke:none"
           d="m 13929.8,16223.4 c 0,-42.3 -34.3,-76.5 -76.5,-76.5 -42.3,0 -76.6,34.2 -76.6,76.5 0,42.3 34.3,76.6 76.6,76.6 42.2,0 76.5,-34.3 76.5,-76.6" /></g></g></g></svg>